<?xml version="1.0" encoding="UTF-8" standalone="no"?>
<!DOCTYPE svg PUBLIC "-//W3C//DTD SVG 1.1//EN" "http://www.w3.org/Graphics/SVG/1.1/DTD/svg11.dtd">
<svg width="100%" height="100%" viewBox="0 0 2048 2048" version="1.1" xmlns="http://www.w3.org/2000/svg" xmlns:xlink="http://www.w3.org/1999/xlink" xml:space="preserve" xmlns:serif="http://www.serif.com/" style="fill-rule:evenodd;clip-rule:evenodd;stroke-linejoin:round;stroke-miterlimit:2;">
    <g transform="matrix(64,0,0,64,0,0)">
        <path d="M0,6C0,2.686 2.686,0 6,0L26,0C29.314,0 32,2.686 32,6L32,26C32,29.314 29.314,32 26,32L6,32C2.686,32 0,29.314 0,26L0,6Z" style="fill:rgb(167,252,47);fill-rule:nonzero;"/>
    </g>
    <g transform="matrix(64,0,0,64,0,0)">
        <path d="M21,10L23.88,10L23.88,21.2L21,21.2L21,16.816L11.88,16.816L11.88,21.2L9,21.2L9,10L11.88,10L11.88,14.384L21,14.384L21,10Z" style="fill-rule:nonzero;"/>
    </g>
</svg>
