<svg width="160" height="160" viewBox="0 0 160 160" fill="none" xmlns="http://www.w3.org/2000/svg">
<path fill-rule="evenodd" clip-rule="evenodd" d="M88.5126 4.70237C85.0744 4.23918 81.5651 4 78 4C34.9218 4 0 38.9218 0 82C0 125.078 34.9218 160 78 160C121.078 160 156 125.078 156 82C156 78.4349 155.761 74.9256 155.298 71.4874C150.688 74.6803 145.492 77.0867 139.904 78.5125C139.968 79.6669 140 80.8296 140 82C140 116.242 112.242 144 78 144C43.7583 144 16 116.242 16 82C16 47.7583 43.7583 20 78 20C79.1704 20 80.3331 20.0324 81.4875 20.0964C82.9133 14.5083 85.3197 9.31228 88.5126 4.70237Z" fill="url(#paint0_linear_1_111)"/>
<circle cx="128" cy="32" r="32" fill="url(#paint1_linear_1_111)"/>
<defs>
<linearGradient id="paint0_linear_1_111" x1="156" y1="4" x2="0" y2="160" gradientUnits="userSpaceOnUse">
<stop stop-color="#93EFD8"/>
<stop offset="1" stop-color="#FC8DC7"/>
</linearGradient>
<linearGradient id="paint1_linear_1_111" x1="160" y1="0" x2="96" y2="64" gradientUnits="userSpaceOnUse">
<stop stop-color="#FC8DC7"/>
<stop offset="1" stop-color="#93EFD8"/>
</linearGradient>
</defs>
</svg>
